<svg xmlns="http://www.w3.org/2000/svg" xmlns:xlink="http://www.w3.org/1999/xlink" width="500" zoomAndPan="magnify" viewBox="0 0 375 374.999991" height="500" preserveAspectRatio="xMidYMid meet" version="1.0"><defs><clipPath id="4e3b58ee33"><path d="M 40.492188 94.148438 L 334.492188 94.148438 L 334.492188 279 L 40.492188 279 Z M 40.492188 94.148438 " clip-rule="nonzero"/></clipPath></defs><rect x="-37.5" width="450" fill="#ffffff" y="-37.499999" height="449.999989" fill-opacity="1"/><rect x="-37.5" width="450" fill="#ffffff" y="-37.499999" height="449.999989" fill-opacity="1"/><rect x="-37.5" width="450" fill="#008037" y="-37.499999" height="449.999989" fill-opacity="1"/><g clip-path="url(#4e3b58ee33)"><path fill="#ffffff" d="M 182.035156 242.726562 C 161.335938 224.648438 157.757812 204.058594 162.289062 181.964844 C 165.148438 168.015625 170.660156 154.789062 176.925781 142.082031 C 181.3125 133.246094 185.816406 124.121094 187.085938 114.878906 C 188.359375 124.121094 192.863281 133.246094 197.25 142.082031 C 203.542969 154.789062 209.027344 168.015625 211.886719 181.964844 C 216.417969 204.058594 212.839844 224.648438 192.140625 242.726562 C 219.335938 235.304688 233.59375 218.296875 237.695312 193.75 C 242.167969 167.035156 237.523438 147.511719 261.050781 125.941406 C 234.433594 125.015625 222.421875 142.371094 220.921875 172.867188 C 214.945312 139.601562 199.730469 132.785156 192.949219 112.25 C 191.101562 106.648438 190.582031 100.585938 191.015625 94.203125 C 188.878906 97.871094 187.636719 101.507812 187.085938 105.175781 C 186.539062 101.507812 185.296875 97.871094 183.191406 94.203125 C 183.625 100.585938 183.105469 106.648438 181.257812 112.25 C 174.472656 132.785156 159.230469 139.601562 153.253906 172.867188 C 151.753906 142.371094 139.742188 125.015625 113.15625 125.941406 C 136.683594 147.511719 132.007812 167.035156 136.480469 193.75 C 140.582031 218.296875 154.839844 235.304688 182.035156 242.726562 Z M 249.964844 254.105469 C 243.816406 261.355469 235.355469 266.496094 226.175781 269.09375 C 215.984375 273.683594 205.015625 274.984375 193.902344 275.679688 C 205.332031 280.125 217.371094 279.316406 229.582031 276.574219 C 266.738281 280.847656 278.285156 266.121094 304.699219 247.375 C 312.957031 241.515625 322.484375 237.152344 334.492188 235.824219 C 307.328125 219.046875 284.433594 222.367188 261.484375 244.546875 C 261.019531 240.332031 259.289062 236.835938 255.21875 234.699219 C 268.527344 221.15625 276.234375 206.3125 282.007812 191.035156 C 286.972656 177.835938 292.34375 168.914062 305.59375 162.125 C 276.640625 159.351562 257.007812 172.320312 247.164062 201.777344 C 243.585938 213.328125 235.328125 229.242188 223.980469 235.710938 C 210.183594 243.941406 190.640625 263.347656 179.351562 267.878906 C 160.960938 275.246094 137.925781 269.296875 125.019531 254.105469 C 116.5625 244.171875 126.117188 238.480469 136.105469 238.972656 C 151.519531 239.695312 165.871094 247.03125 179.320312 259.792969 C 173.808594 250.582031 167.226562 242.0625 154.582031 237.414062 C 141.386719 232.53125 131.746094 214.484375 127.820312 201.777344 C 117.976562 172.320312 98.34375 159.351562 69.390625 162.125 C 82.640625 168.914062 88.011719 177.835938 92.976562 191.035156 C 98.75 206.3125 106.457031 221.15625 119.765625 234.699219 C 115.695312 236.835938 113.964844 240.332031 113.5 244.546875 C 90.550781 222.367188 67.65625 219.046875 40.492188 235.824219 C 52.5 237.152344 62 241.515625 70.285156 247.375 C 96.699219 266.121094 108.246094 280.847656 145.402344 276.574219 C 157.0625 279.203125 168.554688 280.066406 179.523438 276.226562 C 186.222656 273.917969 190.550781 271.460938 195.894531 267.214844 C 208.539062 257.195312 219.796875 247.78125 234.691406 241.109375 C 245.953125 236.054688 259.519531 242.84375 249.964844 254.105469 Z M 196.757812 210.121094 C 198.664062 207.984375 199.789062 205.15625 199.789062 202.066406 C 199.789062 195.308594 194.332031 189.851562 187.609375 189.851562 C 180.851562 189.851562 175.394531 195.308594 175.394531 202.066406 C 175.394531 205.15625 176.550781 207.984375 178.425781 210.121094 C 164.308594 198.65625 181.285156 157.589844 187.492188 144.597656 C 193.582031 157.476562 210.703125 198.800781 196.757812 210.121094 Z M 196.757812 210.121094 " fill-opacity="1" fill-rule="evenodd"/></g></svg>